<svg width="205" height="59" viewBox="0 0 205 59" fill="none" xmlns="http://www.w3.org/2000/svg">
<path d="M203.096 52.1958C203.096 55.34 200.496 57.8868 197.281 57.8868H6.9581C3.74381 57.8868 1.13477 55.34 1.13477 52.1958V6.81168C1.13477 3.66898 3.74381 1.11322 6.9581 1.11322H197.279C200.496 1.11322 203.095 3.66898 203.095 6.81168L203.096 52.1958Z" fill="black"/>
<path d="M196.667 1.18185C200.169 1.18185 203.019 3.96038 203.019 7.375V51.625C203.019 55.0396 200.169 57.8182 196.667 57.8182H7.5641C4.06192 57.8182 1.21215 55.0396 1.21215 51.625V7.375C1.21215 3.96038 4.06192 1.18185 7.5641 1.18185H196.667ZM196.667 5.4802e-06H7.5641C3.40574 5.4802e-06 0 3.3206 0 7.375V51.625C0 55.6794 3.40574 59 7.5641 59H196.667C200.825 59 204.231 55.6794 204.231 51.625V7.375C204.231 3.3206 200.825 5.4802e-06 196.667 5.4802e-06Z" fill="#292929"/>
<path d="M45.5785 29.1814C45.5346 24.4274 49.5708 22.1146 49.7553 22.007C47.4695 18.7575 43.9265 18.3136 42.6814 18.2782C39.7057 17.9728 36.8192 20.0142 35.3034 20.0142C33.7573 20.0142 31.423 18.3077 28.9072 18.3578C25.6697 18.4065 22.6411 20.234 20.98 23.0719C17.5519 28.8583 20.1086 37.3617 23.3929 42.0389C25.0359 44.3296 26.9556 46.8873 29.4684 46.7973C31.9268 46.6985 32.845 45.2692 35.8117 45.2692C38.7511 45.2692 39.6134 46.7973 42.1761 46.7398C44.8145 46.6985 46.4756 44.4388 48.061 42.1274C49.9596 39.5019 50.722 36.9163 50.7523 36.7835C50.6903 36.7629 45.6284 34.8793 45.5785 29.1814Z" fill="white"/>
<path d="M40.7374 15.2013C42.0596 13.5891 42.9643 11.3958 42.7132 9.17004C40.7995 9.25264 38.4062 10.4607 37.028 12.0374C35.8087 13.4269 34.7194 15.7043 35.0008 17.846C37.1505 18.0023 39.3577 16.7884 40.7374 15.2013Z" fill="white"/>
<path d="M81.1552 46.4684H77.7196L75.8377 40.7026H69.2962L67.5035 46.4684H64.1587L70.6396 26.8391H74.6425L81.1552 46.4684ZM75.2704 38.2836L73.5684 33.158C73.3884 32.6343 73.051 31.4012 72.5533 29.4601H72.4928C72.2946 30.295 71.9754 31.5281 71.5367 33.158L69.865 38.2836H75.2704V38.2836Z" fill="white"/>
<path d="M97.8218 39.2173C97.8218 41.6245 97.1546 43.5273 95.8203 44.9241C94.6252 46.1675 93.1411 46.7885 91.3696 46.7885C89.4574 46.7885 88.0837 46.1188 87.2472 44.7795H87.1866V52.2357H83.9613V36.9738C83.9613 35.4605 83.9205 33.9073 83.8418 32.3143H86.6783L86.8584 34.5578H86.9189C87.9945 32.8674 89.6268 32.0237 91.8174 32.0237C93.5299 32.0237 94.9595 32.6831 96.1032 34.0032C97.2499 35.3248 97.8218 37.0623 97.8218 39.2173ZM94.5359 39.3324C94.5359 37.9547 94.2182 36.819 93.5798 35.9251C92.8824 34.9929 91.946 34.5268 90.772 34.5268C89.9763 34.5268 89.2532 34.7864 88.6072 35.2982C87.9597 35.8145 87.5361 36.4886 87.3379 37.3234C87.2381 37.7128 87.1882 38.0314 87.1882 38.2822V40.6422C87.1882 41.6717 87.5119 42.5405 88.1594 43.25C88.8069 43.9594 89.648 44.3134 90.6828 44.3134C91.8976 44.3134 92.8431 43.8562 93.5193 42.9446C94.1971 42.0316 94.5359 40.828 94.5359 39.3324Z" fill="white"/>
<path d="M114.519 39.2173C114.519 41.6245 113.852 43.5273 112.516 44.9241C111.322 46.1675 109.838 46.7885 108.067 46.7885C106.155 46.7885 104.781 46.1188 103.946 44.7795H103.885V52.2357H100.66V36.9738C100.66 35.4605 100.619 33.9073 100.541 32.3143H103.377L103.557 34.5578H103.618C104.692 32.8674 106.324 32.0237 108.516 32.0237C110.227 32.0237 111.657 32.6831 112.803 34.0032C113.946 35.3248 114.519 37.0623 114.519 39.2173ZM111.233 39.3324C111.233 37.9547 110.914 36.819 110.276 35.9251C109.578 34.9929 108.645 34.5268 107.469 34.5268C106.672 34.5268 105.95 34.7864 105.303 35.2982C104.655 35.8145 104.233 36.4886 104.035 37.3234C103.937 37.7128 103.885 38.0314 103.885 38.2822V40.6422C103.885 41.6717 104.209 42.5405 104.854 43.25C105.501 43.958 106.342 44.3134 107.38 44.3134C108.595 44.3134 109.54 43.8562 110.217 42.9446C110.894 42.0316 111.233 40.828 111.233 39.3324Z" fill="white"/>
<path d="M133.187 40.9637C133.187 42.6334 132.593 43.9919 131.399 45.0406C130.087 46.1867 128.261 46.759 125.915 46.759C123.749 46.759 122.012 46.3519 120.697 45.5362L121.445 42.9151C122.861 43.75 124.414 44.1689 126.107 44.1689C127.322 44.1689 128.267 43.9004 128.947 43.3665C129.623 42.8325 129.96 42.1157 129.96 41.2218C129.96 40.4253 129.682 39.7542 129.124 39.2099C128.568 38.6656 127.641 38.1597 126.346 37.6921C122.821 36.4104 121.06 34.5327 121.06 32.0635C121.06 30.4499 121.678 29.1268 122.914 28.0973C124.145 27.0662 125.788 26.5515 127.842 26.5515C129.674 26.5515 131.196 26.8627 132.411 27.4837L131.605 30.0472C130.47 29.4454 129.187 29.1445 127.752 29.1445C126.617 29.1445 125.73 29.4174 125.095 29.9602C124.558 30.4455 124.289 31.0369 124.289 31.7376C124.289 32.5134 124.596 33.155 125.213 33.6595C125.75 34.1256 126.726 34.63 128.142 35.1743C129.874 35.8543 131.146 36.6493 131.965 37.5609C132.78 38.4695 133.187 39.6067 133.187 40.9637Z" fill="white"/>
<path d="M143.851 34.6743H140.296V41.5463C140.296 43.2942 140.922 44.1674 142.178 44.1674C142.754 44.1674 143.232 44.1187 143.611 44.0213L143.7 46.4094C143.065 46.6409 142.228 46.7575 141.192 46.7575C139.918 46.7575 138.922 46.3784 138.204 45.6217C137.488 44.8636 137.128 43.5921 137.128 41.8059V34.6713H135.01V32.3113H137.128V29.7197L140.296 28.7875V32.3113H143.851V34.6743Z" fill="white"/>
<path d="M159.891 39.2748C159.891 41.4504 159.253 43.2366 157.979 44.6334C156.643 46.0716 154.87 46.7884 152.66 46.7884C150.53 46.7884 148.834 46.0996 147.569 44.7219C146.305 43.3443 145.672 41.6053 145.672 39.5093C145.672 37.316 146.323 35.5194 147.628 34.1226C148.931 32.7243 150.689 32.0251 152.899 32.0251C155.029 32.0251 156.743 32.714 158.037 34.0931C159.274 35.4309 159.891 37.1581 159.891 39.2748ZM156.545 39.3765C156.545 38.0712 156.259 36.9516 155.68 36.018C155.003 34.8881 154.037 34.3247 152.784 34.3247C151.488 34.3247 150.503 34.8896 149.827 36.018C149.247 36.9531 148.961 38.0903 148.961 39.4355C148.961 40.7409 149.247 41.8604 149.827 42.7926C150.524 43.9225 151.498 44.4859 152.755 44.4859C153.987 44.4859 154.954 43.9107 155.651 42.7631C156.245 41.8118 156.545 40.6804 156.545 39.3765Z" fill="white"/>
<path d="M170.375 35.0799C170.056 35.0224 169.716 34.9929 169.359 34.9929C168.224 34.9929 167.347 35.4103 166.729 36.2467C166.192 36.9842 165.923 37.9164 165.923 39.0418V46.4684H162.699L162.729 36.7718C162.729 35.1404 162.689 33.6551 162.608 32.3158H165.418L165.536 35.0239H165.625C165.965 34.0932 166.502 33.3439 167.238 32.7819C167.956 32.276 168.732 32.0237 169.569 32.0237C169.867 32.0237 170.136 32.0444 170.375 32.0813V35.0799Z" fill="white"/>
<path d="M184.8 38.7217C184.8 39.2851 184.762 39.7601 184.682 40.148H175.006C175.044 41.5463 175.512 42.6157 176.41 43.3532C177.226 44.0125 178.28 44.3429 179.575 44.3429C181.008 44.3429 182.315 44.1202 183.49 43.6732L183.995 45.8562C182.622 46.4403 181 46.7309 179.129 46.7309C176.878 46.7309 175.111 46.0849 173.825 44.7942C172.542 43.5036 171.899 41.7705 171.899 39.5963C171.899 37.462 172.496 35.6846 173.693 34.2672C174.946 32.7538 176.639 31.9971 178.769 31.9971C180.861 31.9971 182.445 32.7538 183.52 34.2672C184.372 35.4693 184.8 36.9561 184.8 38.7217ZM181.725 37.906C181.746 36.9738 181.536 36.1684 181.098 35.4885C180.54 34.6138 179.682 34.1772 178.528 34.1772C177.474 34.1772 176.616 34.6035 175.961 35.459C175.424 36.1389 175.105 36.9546 175.006 37.9045H181.725V37.906Z" fill="white"/>
<path d="M74.2041 14.7633C74.2041 16.4994 73.6701 17.8063 72.6036 18.6839C71.6157 19.4937 70.2118 19.8993 68.3934 19.8993C67.4917 19.8993 66.7202 19.8609 66.0742 19.7842V10.2985C66.9169 10.1657 67.8246 10.0979 68.8049 10.0979C70.537 10.0979 71.8426 10.4652 72.7231 11.1997C73.7094 12.0302 74.2041 13.2175 74.2041 14.7633ZM72.5325 14.8061C72.5325 13.6807 72.2269 12.8178 71.6157 12.216C71.0045 11.6157 70.1119 11.3148 68.9365 11.3148C68.4372 11.3148 68.0121 11.3472 67.6597 11.4151V18.6264C67.8548 18.6559 68.2118 18.6691 68.7307 18.6691C69.944 18.6691 70.8805 18.3402 71.54 17.6824C72.1996 17.0245 72.5325 16.0658 72.5325 14.8061Z" fill="white"/>
<path d="M83.0677 16.2796C83.0677 17.349 82.7545 18.2251 82.1282 18.9125C81.4717 19.619 80.6018 19.9715 79.5156 19.9715C78.4687 19.9715 77.6352 19.6337 77.0134 18.9552C76.3931 18.2782 76.083 17.4242 76.083 16.3946C76.083 15.3179 76.4022 14.4344 77.0436 13.7485C77.6851 13.0626 78.5474 12.7189 79.6336 12.7189C80.6805 12.7189 81.5216 13.0567 82.1585 13.7337C82.7636 14.3916 83.0677 15.2412 83.0677 16.2796ZM81.4233 16.3297C81.4233 15.6881 81.2811 15.1379 80.9982 14.6792C80.6653 14.1246 80.1918 13.8473 79.5761 13.8473C78.9392 13.8473 78.4551 14.1246 78.1223 14.6792C77.8379 15.1379 77.6972 15.697 77.6972 16.3578C77.6972 16.9994 77.8394 17.5496 78.1223 18.0083C78.4657 18.5629 78.9438 18.8402 79.561 18.8402C80.1661 18.8402 80.6411 18.5585 80.983 17.9935C81.2765 17.526 81.4233 16.9714 81.4233 16.3297Z" fill="white"/>
<path d="M94.9527 12.8605L92.7213 19.8137H91.269L90.3446 16.7944C90.1101 16.0406 89.9195 15.2913 89.7713 14.5479H89.7425C89.6049 15.312 89.4142 16.0598 89.1692 16.7944L88.1873 19.8137H86.7184L84.6201 12.8605H86.2494L87.0558 16.166C87.2509 16.9478 87.4113 17.6926 87.5399 18.3977H87.5686C87.6866 17.8165 87.8818 17.0761 88.1571 16.1808L89.1692 12.862H90.4611L91.4308 16.11C91.6653 16.902 91.8559 17.6646 92.0027 18.3992H92.0465C92.154 17.6838 92.3158 16.9212 92.5307 16.11L93.396 12.862H94.9527V12.8605Z" fill="white"/>
<path d="M103.171 19.8137H101.586V15.8312C101.586 14.604 101.108 13.9904 100.149 13.9904C99.6783 13.9904 99.2986 14.1586 99.0036 14.4963C98.7116 14.8341 98.5633 15.2324 98.5633 15.6881V19.8122H96.9779V14.8474C96.9779 14.2367 96.9582 13.5745 96.9204 12.8576H98.3137L98.3878 13.9447H98.4317C98.6163 13.6069 98.8916 13.3281 99.2532 13.1054C99.6828 12.8458 100.164 12.7145 100.69 12.7145C101.356 12.7145 101.91 12.924 102.35 13.3444C102.898 13.8591 103.171 14.6276 103.171 15.6483V19.8137V19.8137Z" fill="white"/>
<path d="M107.544 19.8137H105.96V9.6701H107.544V19.8137Z" fill="white"/>
<path d="M116.878 16.2796C116.878 17.349 116.565 18.2251 115.938 18.9125C115.282 19.619 114.41 19.9715 113.326 19.9715C112.277 19.9715 111.444 19.6337 110.823 18.9552C110.203 18.2782 109.893 17.4242 109.893 16.3946C109.893 15.3179 110.212 14.4344 110.854 13.7485C111.495 13.0626 112.357 12.7189 113.442 12.7189C114.491 12.7189 115.33 13.0567 115.969 13.7337C116.574 14.3916 116.878 15.2412 116.878 16.2796ZM115.232 16.3297C115.232 15.6881 115.09 15.1379 114.807 14.6792C114.475 14.1246 114 13.8473 113.386 13.8473C112.748 13.8473 112.264 14.1246 111.932 14.6792C111.648 15.1379 111.507 15.697 111.507 16.3578C111.507 16.9994 111.649 17.5496 111.932 18.0083C112.276 18.5629 112.754 18.8402 113.371 18.8402C113.976 18.8402 114.45 18.5585 114.792 17.9935C115.087 17.526 115.232 16.9714 115.232 16.3297Z" fill="white"/>
<path d="M124.551 19.8137H123.127L123.009 19.0128H122.965C122.478 19.6514 121.784 19.9715 120.882 19.9715C120.209 19.9715 119.664 19.7606 119.255 19.3417C118.882 18.9611 118.696 18.4877 118.696 17.9257C118.696 17.0761 119.059 16.4286 119.79 15.9802C120.519 15.5318 121.545 15.312 122.866 15.3223V15.1925C122.866 14.2765 122.372 13.8193 121.385 13.8193C120.681 13.8193 120.061 13.9919 119.525 14.3341L119.203 13.3193C119.866 12.9195 120.684 12.7189 121.649 12.7189C123.513 12.7189 124.448 13.6777 124.448 15.5952V18.1558C124.448 18.8505 124.483 19.4036 124.551 19.8137ZM122.905 17.4242V16.3519C121.156 16.3224 120.282 16.7899 120.282 17.7531C120.282 18.116 120.382 18.3874 120.586 18.5688C120.79 18.7502 121.05 18.8402 121.36 18.8402C121.708 18.8402 122.034 18.7325 122.33 18.5186C122.628 18.3033 122.811 18.0304 122.879 17.6956C122.896 17.6204 122.905 17.5289 122.905 17.4242Z" fill="white"/>
<path d="M133.56 19.8137H132.153L132.079 18.6971H132.035C131.585 19.5467 130.82 19.9715 129.744 19.9715C128.885 19.9715 128.169 19.6426 127.602 18.9847C127.035 18.3269 126.752 17.4729 126.752 16.4241C126.752 15.2987 127.059 14.3872 127.676 13.691C128.274 13.042 129.006 12.7175 129.877 12.7175C130.835 12.7175 131.505 13.0316 131.886 13.6615H131.917V9.6701H133.504V17.9404C133.504 18.6175 133.522 19.2414 133.56 19.8137ZM131.917 16.8814V15.722C131.917 15.5214 131.902 15.3592 131.873 15.2353C131.784 14.8636 131.591 14.5509 131.299 14.2987C131.004 14.0464 130.649 13.9196 130.239 13.9196C129.647 13.9196 129.185 14.1482 128.844 14.6069C128.507 15.0657 128.336 15.6512 128.336 16.3666C128.336 17.054 128.498 17.6115 128.823 18.0407C129.166 18.498 129.629 18.7266 130.209 18.7266C130.729 18.7266 131.145 18.5363 131.461 18.1543C131.767 17.8018 131.917 17.377 131.917 16.8814Z" fill="white"/>
<path d="M147.119 16.2796C147.119 17.349 146.806 18.2251 146.18 18.9125C145.523 19.619 144.655 19.9715 143.567 19.9715C142.522 19.9715 141.688 19.6337 141.065 18.9552C140.444 18.2782 140.134 17.4242 140.134 16.3946C140.134 15.3179 140.453 14.4344 141.095 13.7485C141.736 13.0626 142.599 12.7189 143.686 12.7189C144.732 12.7189 145.574 13.0567 146.21 13.7337C146.815 14.3916 147.119 15.2412 147.119 16.2796ZM145.476 16.3297C145.476 15.6881 145.334 15.1379 145.051 14.6792C144.717 14.1246 144.245 13.8473 143.627 13.8473C142.992 13.8473 142.508 14.1246 142.174 14.6792C141.889 15.1379 141.748 15.697 141.748 16.3578C141.748 16.9994 141.891 17.5496 142.174 18.0083C142.517 18.5629 142.995 18.8402 143.612 18.8402C144.217 18.8402 144.694 18.5585 145.036 17.9935C145.328 17.526 145.476 16.9714 145.476 16.3297Z" fill="white"/>
<path d="M155.644 19.8137H154.06V15.8312C154.06 14.604 153.582 13.9904 152.621 13.9904C152.151 13.9904 151.771 14.1586 151.478 14.4963C151.184 14.8341 151.037 15.2324 151.037 15.6881V19.8122H149.451V14.8474C149.451 14.2367 149.432 13.5745 149.395 12.8576H150.786L150.86 13.9447H150.904C151.09 13.6069 151.366 13.3281 151.726 13.1054C152.157 12.8458 152.637 12.7145 153.164 12.7145C153.829 12.7145 154.382 12.924 154.823 13.3444C155.372 13.8591 155.644 14.6276 155.644 15.6483V19.8137V19.8137Z" fill="white"/>
<path d="M166.314 14.0184H164.568V17.3962C164.568 18.2546 164.878 18.6839 165.492 18.6839C165.776 18.6839 166.012 18.6603 166.199 18.6116L166.239 19.7842C165.926 19.8993 165.515 19.9568 165.008 19.9568C164.382 19.9568 163.895 19.7709 163.542 19.3992C163.188 19.0275 163.013 18.4021 163.013 17.5245V14.0184H161.97V12.8606H163.013V11.5862L164.566 11.1289V12.8591H166.312V14.0184H166.314Z" fill="white"/>
<path d="M174.707 19.8137H173.12V15.8607C173.12 14.6143 172.642 13.9904 171.684 13.9904C170.949 13.9904 170.447 14.3518 170.171 15.0745C170.124 15.2264 170.097 15.4123 170.097 15.6306V19.8122H168.513V9.6701H170.097V13.8606H170.127C170.627 13.098 171.342 12.7175 172.27 12.7175C172.926 12.7175 173.469 12.9269 173.9 13.3473C174.437 13.8709 174.707 14.6497 174.707 15.6793V19.8137V19.8137Z" fill="white"/>
<path d="M183.365 16.0082C183.365 16.2855 183.343 16.5186 183.306 16.7088H178.551C178.572 17.3962 178.799 17.9198 179.239 18.2827C179.642 18.6072 180.16 18.7694 180.796 18.7694C181.499 18.7694 182.141 18.6603 182.719 18.4405L182.967 19.5143C182.291 19.8004 181.495 19.9435 180.573 19.9435C179.469 19.9435 178.599 19.6264 177.97 18.9921C177.338 18.3579 177.024 17.5068 177.024 16.4389C177.024 15.3902 177.316 14.517 177.905 13.8208C178.519 13.0774 179.35 12.7057 180.398 12.7057C181.424 12.7057 182.203 13.0774 182.729 13.8208C183.154 14.4108 183.365 15.1409 183.365 16.0082ZM181.852 15.6085C181.864 15.1498 181.76 14.7545 181.545 14.4211C181.269 13.9919 180.85 13.7765 180.283 13.7765C179.766 13.7765 179.344 13.986 179.021 14.4064C178.758 14.7412 178.602 15.1409 178.551 15.6085H181.852Z" fill="white"/>
</svg>
