<svg width="429" height="32" viewBox="0 0 429 32" fill="none" xmlns="http://www.w3.org/2000/svg">
<path d="M3 7.2116H11.2363L16.9018 21.016H17.1874L22.8529 7.2116H31.0892V31.5835H24.6144V17.4935H24.4239L18.9965 31.3931H15.0926L9.66523 17.3983H9.47479V31.5835H3V7.2116Z" fill="#E8E8E3"/>
<path d="M65.3339 7.2116H71.2136V22.9319C71.2136 24.7487 70.7812 26.3315 69.9163 27.6802C69.0514 29.0209 67.8453 30.0602 66.298 30.7981C64.7507 31.528 62.9535 31.8929 60.9063 31.8929C58.8353 31.8929 57.0262 31.528 55.4789 30.7981C53.9316 30.0602 52.7295 29.0209 51.8725 27.6802C51.0156 26.3315 50.5871 24.7487 50.5871 22.9319V7.2116H56.4787V22.4202C56.4787 23.2612 56.6612 24.0109 57.0262 24.6694C57.3991 25.3279 57.9189 25.8436 58.5854 26.2164C59.2519 26.5893 60.0255 26.7758 60.9063 26.7758C61.7871 26.7758 62.5567 26.5893 63.2153 26.2164C63.8818 25.8436 64.4016 25.3279 64.7745 24.6694C65.1475 24.0109 65.3339 23.2612 65.3339 22.4202V7.2116Z" fill="#E8E8E3"/>
<path d="M91.5536 31.5835V7.2116H100.694C102.567 7.2116 104.138 7.53688 105.408 8.18743C106.685 8.83798 107.649 9.75034 108.3 10.9245C108.959 12.0907 109.288 13.4513 109.288 15.0063C109.288 16.5692 108.955 17.9259 108.288 19.0762C107.63 20.2187 106.657 21.1033 105.372 21.73C104.087 22.3488 102.508 22.6582 100.635 22.6582H94.1245V18.9929H100.04C101.135 18.9929 102.032 18.8422 102.73 18.5407C103.428 18.2313 103.944 17.7831 104.277 17.196C104.618 16.601 104.789 15.8711 104.789 15.0063C104.789 14.1416 104.618 13.4037 104.277 12.7929C103.936 12.174 103.416 11.706 102.718 11.3886C102.02 11.0633 101.119 10.9007 100.016 10.9007H95.9693V31.5835H91.5536ZM104.146 20.54L110.181 31.5835H105.253L99.3257 20.54H104.146Z" fill="#E8E8E3"/>
<path d="M133.392 7.2116V31.5835H129.714V7.2116H133.392Z" fill="#E8E8E3"/>
<path d="M155.11 31.5835V7.2116H158.061V28.9654H169.392V31.5835H155.11Z" fill="#E8E8E3"/>
<path d="M210.32 19.3975C210.32 21.9363 209.868 24.1458 208.963 26.026C208.059 27.8984 206.813 29.3502 205.226 30.3816C203.647 31.405 201.83 31.9167 199.775 31.9167C197.72 31.9167 195.899 31.405 194.312 30.3816C192.733 29.3502 191.491 27.8984 190.586 26.026C189.69 24.1458 189.241 21.9363 189.241 19.3975C189.241 16.8588 189.69 14.6533 190.586 12.781C191.491 10.9007 192.737 9.44887 194.324 8.42544C195.911 7.39407 197.728 6.87839 199.775 6.87839C201.83 6.87839 203.647 7.39407 205.226 8.42544C206.813 9.44887 208.059 10.9007 208.963 12.781C209.868 14.6533 210.32 16.8588 210.32 19.3975ZM208.154 19.3975C208.154 17.2158 207.789 15.3475 207.059 13.7925C206.329 12.2296 205.333 11.0356 204.071 10.2105C202.81 9.3854 201.378 8.97285 199.775 8.97285C198.18 8.97285 196.752 9.3854 195.49 10.2105C194.228 11.0356 193.229 12.2256 192.491 13.7806C191.761 15.3356 191.396 17.2079 191.396 19.3975C191.396 21.5793 191.761 23.4476 192.491 25.0026C193.221 26.5576 194.216 27.7516 195.478 28.5846C196.74 29.4097 198.172 29.8222 199.775 29.8222C201.378 29.8222 202.81 29.4097 204.071 28.5846C205.341 27.7595 206.341 26.5695 207.071 25.0145C207.801 23.4516 208.162 21.5793 208.154 19.3975Z" fill="#E8E8E3"/>
<path d="M270.541 13.3046C270.406 11.9479 269.807 10.869 268.743 10.0677C267.68 9.26639 266.343 8.86575 264.732 8.86575C263.598 8.86575 262.598 9.06012 261.733 9.44887C260.876 9.83761 260.202 10.3771 259.71 11.0673C259.226 11.7496 258.984 12.5271 258.984 13.3998C258.984 14.0424 259.122 14.6057 259.4 15.0896C259.678 15.5736 260.051 15.9901 260.519 16.3392C260.995 16.6803 261.519 16.9738 262.09 17.2198C262.669 17.4657 263.252 17.672 263.84 17.8386L266.411 18.5764C267.188 18.7906 267.966 19.0643 268.743 19.3975C269.521 19.7308 270.231 20.1512 270.874 20.659C271.524 21.1588 272.044 21.7736 272.433 22.5035C272.83 23.2255 273.028 24.0942 273.028 25.1097C273.028 26.4108 272.691 27.581 272.016 28.6203C271.342 29.6596 270.374 30.4847 269.112 31.0956C267.851 31.6985 266.339 32 264.578 32C262.919 32 261.479 31.7263 260.257 31.1789C259.035 30.6235 258.075 29.8579 257.377 28.8821C256.678 27.9063 256.286 26.7758 256.198 25.4905H258.484C258.563 26.4505 258.88 27.2637 259.436 27.9301C259.991 28.5965 260.713 29.1043 261.602 29.4533C262.491 29.7945 263.483 29.965 264.578 29.965C265.792 29.965 266.871 29.7627 267.815 29.3581C268.767 28.9456 269.513 28.3744 270.053 27.6445C270.6 26.9067 270.874 26.0498 270.874 25.074C270.874 24.2489 270.66 23.5587 270.231 23.0033C269.803 22.4401 269.204 21.968 268.434 21.5872C267.672 21.2064 266.787 20.8692 265.78 20.5757L262.864 19.7189C260.951 19.1476 259.468 18.3582 258.412 17.3507C257.357 16.3431 256.829 15.0579 256.829 13.495C256.829 12.1859 257.178 11.0356 257.877 10.0439C258.583 9.04425 259.535 8.26677 260.733 7.71142C261.939 7.14813 263.292 6.86649 264.792 6.86649C266.307 6.86649 267.648 7.14417 268.815 7.69952C269.981 8.25487 270.906 9.02045 271.588 9.99628C272.278 10.9642 272.647 12.0669 272.695 13.3046H270.541Z" fill="#E8E8E3"/>
<path d="M297.138 7.2116V31.5835H294.186V7.2116H297.138Z" fill="#E8E8E3"/>
<path d="M318.597 7.2116H324.001L331.237 24.8717H331.523L338.759 7.2116H344.163V31.5835H339.926V14.8397H339.7L332.963 31.5121H329.797L323.06 14.804H322.834V31.5835H318.597V7.2116Z" fill="#E8E8E3"/>
<path d="M368.975 31.5835H363.453L371.867 7.2116H378.509L386.912 31.5835H381.389L375.283 12.781H375.093L368.975 31.5835ZM368.63 22.0037H381.675V26.026H368.63V22.0037ZM371.772 4.80774L368.963 4.77203C368.963 3.25673 369.336 2.09446 370.082 1.28524C370.828 0.476013 371.744 0.0674353 372.831 0.0595015C373.387 0.0595015 373.863 0.150738 374.26 0.33321C374.656 0.507748 375.017 0.714021 375.343 0.952028C375.668 1.19003 375.978 1.40027 376.271 1.58274C376.565 1.75728 376.882 1.84455 377.223 1.84455C377.684 1.83662 378.033 1.66605 378.271 1.33284C378.517 0.991695 378.64 0.547416 378.64 0L381.413 0.0833029C381.397 1.58274 381.016 2.74104 380.27 3.5582C379.524 4.36742 378.612 4.776 377.533 4.78393C376.946 4.79187 376.45 4.7046 376.045 4.52213C375.648 4.33966 375.299 4.13338 374.998 3.90331C374.696 3.6653 374.403 3.45506 374.117 3.27259C373.831 3.09012 373.51 2.99888 373.153 2.99888C372.74 2.99888 372.407 3.16152 372.153 3.4868C371.899 3.81207 371.772 4.25239 371.772 4.80774Z" fill="#E8E8E3"/>
<path d="M429 19.3975C429 22.1108 428.472 24.3997 427.417 26.264C426.362 28.1205 424.937 29.5287 423.144 30.4887C421.351 31.4407 419.351 31.9167 417.145 31.9167C414.924 31.9167 412.916 31.4367 411.123 30.4768C409.338 29.5089 407.917 28.0967 406.862 26.2402C405.815 24.3759 405.291 22.095 405.291 19.3975C405.291 16.6843 405.815 14.3994 406.862 12.543C407.917 10.6786 409.338 9.27036 411.123 8.31833C412.916 7.35837 414.924 6.87839 417.145 6.87839C419.351 6.87839 421.351 7.35837 423.144 8.31833C424.937 9.27036 426.362 10.6786 427.417 12.543C428.472 14.3994 429 16.6843 429 19.3975ZM422.192 19.3975C422.192 17.9378 421.998 16.7081 421.609 15.7084C421.228 14.7009 420.661 13.9393 419.907 13.4236C419.161 12.9 418.24 12.6382 417.145 12.6382C416.05 12.6382 415.126 12.9 414.372 13.4236C413.626 13.9393 413.059 14.7009 412.67 15.7084C412.289 16.7081 412.099 17.9378 412.099 19.3975C412.099 20.8573 412.289 22.091 412.67 23.0985C413.059 24.0982 413.626 24.8598 414.372 25.3834C415.126 25.8991 416.05 26.1569 417.145 26.1569C418.24 26.1569 419.161 25.8991 419.907 25.3834C420.661 24.8598 421.228 24.0982 421.609 23.0985C421.998 22.091 422.192 20.8573 422.192 19.3975Z" fill="#E8E8E3"/>
<path d="M0 7.2116H8.23632L13.9018 21.016H14.1874L19.8529 7.2116H28.0892V31.5835H21.6144V17.4935H21.4239L15.9965 31.3931H12.0926L6.66523 17.3983H6.47479V31.5835H0V7.2116Z" fill="#2C2C2A"/>
<path d="M62.3339 7.2116H68.2136V22.9319C68.2136 24.7487 67.7812 26.3315 66.9163 27.6802C66.0514 29.0209 64.8453 30.0602 63.298 30.7981C61.7507 31.528 59.9535 31.8929 57.9063 31.8929C55.8353 31.8929 54.0262 31.528 52.4789 30.7981C50.9316 30.0602 49.7295 29.0209 48.8725 27.6802C48.0156 26.3315 47.5871 24.7487 47.5871 22.9319V7.2116H53.4787V22.4202C53.4787 23.2612 53.6612 24.0109 54.0262 24.6694C54.3991 25.3279 54.9189 25.8436 55.5854 26.2164C56.2519 26.5893 57.0255 26.7758 57.9063 26.7758C58.7871 26.7758 59.5567 26.5893 60.2153 26.2164C60.8818 25.8436 61.4016 25.3279 61.7745 24.6694C62.1475 24.0109 62.3339 23.2612 62.3339 22.4202V7.2116Z" fill="#2C2C2A"/>
<path d="M88.5536 31.5835V7.2116H97.6945C99.5671 7.2116 101.138 7.53688 102.408 8.18743C103.685 8.83798 104.649 9.75034 105.3 10.9245C105.959 12.0907 106.288 13.4513 106.288 15.0063C106.288 16.5692 105.955 17.9259 105.288 19.0762C104.63 20.2187 103.657 21.1033 102.372 21.73C101.087 22.3488 99.5076 22.6582 97.635 22.6582H91.1245V18.9929H97.0399C98.1349 18.9929 99.0315 18.8422 99.7298 18.5407C100.428 18.2313 100.944 17.7831 101.277 17.196C101.618 16.601 101.789 15.8711 101.789 15.0063C101.789 14.1416 101.618 13.4037 101.277 12.7929C100.936 12.174 100.416 11.706 99.7179 11.3886C99.0196 11.0633 98.119 10.9007 97.0161 10.9007H92.9693V31.5835H88.5536ZM101.146 20.54L107.181 31.5835H102.253L96.3257 20.54H101.146Z" fill="#2C2C2A"/>
<path d="M130.392 7.2116V31.5835H126.714V7.2116H130.392Z" fill="#2C2C2A"/>
<path d="M152.11 31.5835V7.2116H155.061V28.9654H166.392V31.5835H152.11Z" fill="#2C2C2A"/>
<path d="M207.32 19.3975C207.32 21.9363 206.868 24.1458 205.963 26.026C205.059 27.8984 203.813 29.3502 202.226 30.3816C200.647 31.405 198.83 31.9167 196.775 31.9167C194.72 31.9167 192.899 31.405 191.312 30.3816C189.733 29.3502 188.491 27.8984 187.586 26.026C186.69 24.1458 186.241 21.9363 186.241 19.3975C186.241 16.8588 186.69 14.6533 187.586 12.781C188.491 10.9007 189.737 9.44887 191.324 8.42544C192.911 7.39407 194.728 6.87839 196.775 6.87839C198.83 6.87839 200.647 7.39407 202.226 8.42544C203.813 9.44887 205.059 10.9007 205.963 12.781C206.868 14.6533 207.32 16.8588 207.32 19.3975ZM205.154 19.3975C205.154 17.2158 204.789 15.3475 204.059 13.7925C203.329 12.2296 202.333 11.0356 201.071 10.2105C199.81 9.3854 198.378 8.97285 196.775 8.97285C195.18 8.97285 193.752 9.3854 192.49 10.2105C191.228 11.0356 190.229 12.2256 189.491 13.7806C188.761 15.3356 188.396 17.2079 188.396 19.3975C188.396 21.5793 188.761 23.4476 189.491 25.0026C190.221 26.5576 191.216 27.7516 192.478 28.5846C193.74 29.4097 195.172 29.8222 196.775 29.8222C198.378 29.8222 199.81 29.4097 201.071 28.5846C202.341 27.7595 203.341 26.5695 204.071 25.0145C204.801 23.4516 205.162 21.5793 205.154 19.3975Z" fill="#2C2C2A"/>
<path d="M267.541 13.3046C267.406 11.9479 266.807 10.869 265.743 10.0677C264.68 9.26639 263.343 8.86575 261.732 8.86575C260.598 8.86575 259.598 9.06012 258.733 9.44887C257.876 9.83761 257.202 10.3771 256.71 11.0673C256.226 11.7496 255.984 12.5271 255.984 13.3998C255.984 14.0424 256.122 14.6057 256.4 15.0896C256.678 15.5736 257.051 15.9901 257.519 16.3392C257.995 16.6803 258.519 16.9738 259.09 17.2198C259.669 17.4657 260.252 17.672 260.84 17.8386L263.411 18.5764C264.188 18.7906 264.966 19.0643 265.743 19.3975C266.521 19.7308 267.231 20.1512 267.874 20.659C268.524 21.1588 269.044 21.7736 269.433 22.5035C269.83 23.2255 270.028 24.0942 270.028 25.1097C270.028 26.4108 269.691 27.581 269.016 28.6203C268.342 29.6596 267.374 30.4847 266.112 31.0956C264.851 31.6985 263.339 32 261.578 32C259.919 32 258.479 31.7263 257.257 31.1789C256.035 30.6235 255.075 29.8579 254.377 28.8821C253.678 27.9063 253.286 26.7758 253.198 25.4905H255.484C255.563 26.4505 255.88 27.2637 256.436 27.9301C256.991 28.5965 257.713 29.1043 258.602 29.4533C259.491 29.7945 260.483 29.965 261.578 29.965C262.792 29.965 263.871 29.7627 264.815 29.3581C265.767 28.9456 266.513 28.3744 267.053 27.6445C267.6 26.9067 267.874 26.0498 267.874 25.074C267.874 24.2489 267.66 23.5587 267.231 23.0033C266.803 22.4401 266.204 21.968 265.434 21.5872C264.672 21.2064 263.787 20.8692 262.78 20.5757L259.864 19.7189C257.951 19.1476 256.468 18.3582 255.412 17.3507C254.357 16.3431 253.829 15.0579 253.829 13.495C253.829 12.1859 254.178 11.0356 254.877 10.0439C255.583 9.04425 256.535 8.26677 257.733 7.71142C258.939 7.14813 260.292 6.86649 261.792 6.86649C263.307 6.86649 264.648 7.14417 265.815 7.69952C266.981 8.25487 267.906 9.02045 268.588 9.99628C269.278 10.9642 269.647 12.0669 269.695 13.3046H267.541Z" fill="#2C2C2A"/>
<path d="M294.138 7.2116V31.5835H291.186V7.2116H294.138Z" fill="#2C2C2A"/>
<path d="M315.597 7.2116H321.001L328.237 24.8717H328.523L335.759 7.2116H341.163V31.5835H336.926V14.8397H336.7L329.963 31.5121H326.797L320.06 14.804H319.834V31.5835H315.597V7.2116Z" fill="#2C2C2A"/>
<path d="M365.975 31.5835H360.453L368.867 7.2116H375.509L383.912 31.5835H378.389L372.283 12.781H372.093L365.975 31.5835ZM365.63 22.0037H378.675V26.026H365.63V22.0037ZM368.772 4.80774L365.963 4.77203C365.963 3.25673 366.336 2.09446 367.082 1.28524C367.828 0.476013 368.744 0.0674353 369.831 0.0595015C370.387 0.0595015 370.863 0.150738 371.26 0.33321C371.656 0.507748 372.017 0.714021 372.343 0.952028C372.668 1.19003 372.978 1.40027 373.271 1.58274C373.565 1.75728 373.882 1.84455 374.223 1.84455C374.684 1.83662 375.033 1.66605 375.271 1.33284C375.517 0.991695 375.64 0.547416 375.64 0L378.413 0.0833029C378.397 1.58274 378.016 2.74104 377.27 3.5582C376.524 4.36742 375.612 4.776 374.533 4.78393C373.946 4.79187 373.45 4.7046 373.045 4.52213C372.648 4.33966 372.299 4.13338 371.998 3.90331C371.696 3.6653 371.403 3.45506 371.117 3.27259C370.831 3.09012 370.51 2.99888 370.153 2.99888C369.74 2.99888 369.407 3.16152 369.153 3.4868C368.899 3.81207 368.772 4.25239 368.772 4.80774Z" fill="#2C2C2A"/>
<path d="M426 19.3975C426 22.1108 425.472 24.3997 424.417 26.264C423.362 28.1205 421.937 29.5287 420.144 30.4887C418.351 31.4407 416.351 31.9167 414.145 31.9167C411.924 31.9167 409.916 31.4367 408.123 30.4768C406.338 29.5089 404.917 28.0967 403.862 26.2402C402.815 24.3759 402.291 22.095 402.291 19.3975C402.291 16.6843 402.815 14.3994 403.862 12.543C404.917 10.6786 406.338 9.27036 408.123 8.31833C409.916 7.35837 411.924 6.87839 414.145 6.87839C416.351 6.87839 418.351 7.35837 420.144 8.31833C421.937 9.27036 423.362 10.6786 424.417 12.543C425.472 14.3994 426 16.6843 426 19.3975ZM419.192 19.3975C419.192 17.9378 418.998 16.7081 418.609 15.7084C418.228 14.7009 417.661 13.9393 416.907 13.4236C416.161 12.9 415.24 12.6382 414.145 12.6382C413.05 12.6382 412.126 12.9 411.372 13.4236C410.626 13.9393 410.059 14.7009 409.67 15.7084C409.289 16.7081 409.099 17.9378 409.099 19.3975C409.099 20.8573 409.289 22.091 409.67 23.0985C410.059 24.0982 410.626 24.8598 411.372 25.3834C412.126 25.8991 413.05 26.1569 414.145 26.1569C415.24 26.1569 416.161 25.8991 416.907 25.3834C417.661 24.8598 418.228 24.0982 418.609 23.0985C418.998 22.091 419.192 20.8573 419.192 19.3975Z" fill="#2C2C2A"/>
</svg>
