<svg width="204" height="59" viewBox="0 0 204 59" fill="none" xmlns="http://www.w3.org/2000/svg">
<path d="M196.396 59H7.55371C3.40106 59 0 55.6794 0 51.625V7.375C0 3.3206 3.40106 1.7097e-06 7.55371 1.7097e-06H196.396C200.549 1.7097e-06 203.95 3.3206 203.95 7.375V51.625C203.95 55.6794 200.549 59 196.396 59Z" fill="black"/>
<path d="M196.396 1.18184C199.894 1.18184 202.74 3.96038 202.74 7.375V51.625C202.74 55.0396 199.894 57.8182 196.396 57.8182H7.55371C4.05634 57.8182 1.21048 55.0396 1.21048 51.625V7.375C1.21048 3.96038 4.05634 1.18184 7.55371 1.18184H196.396ZM196.396 1.7097e-06H7.55371C3.40106 1.7097e-06 0 3.3206 0 7.375V51.625C0 55.6794 3.40106 59 7.55371 59H196.396C200.549 59 203.95 55.6794 203.95 51.625V7.375C203.95 3.3206 200.549 1.7097e-06 196.396 1.7097e-06Z" fill="#292929"/>
<path d="M71.6358 15.1095C71.6358 16.3411 71.2581 17.3275 70.5141 18.0632C69.6586 18.9353 68.5444 19.3741 67.1791 19.3741C65.8742 19.3741 64.76 18.9279 63.846 18.0484C62.9301 17.1561 62.4731 16.0609 62.4731 14.75C62.4731 13.4391 62.9301 12.3439 63.846 11.4589C64.76 10.572 65.8742 10.1259 67.1791 10.1259C67.8287 10.1259 68.4481 10.2568 69.0392 10.5001C69.6284 10.7454 70.108 11.0772 70.4555 11.4865L69.6662 12.2646C69.06 11.5658 68.2347 11.221 67.1791 11.221C66.2273 11.221 65.4021 11.5455 64.7015 12.2001C64.0084 12.8564 63.661 13.7064 63.661 14.75C63.661 15.7935 64.0084 16.6509 64.7015 17.3073C65.4021 17.9544 66.2273 18.2863 67.1791 18.2863C68.1894 18.2863 69.0392 17.9544 69.7096 17.2999C70.1515 16.8666 70.4027 16.2692 70.4687 15.5059H67.1791V14.4402H71.5678C71.6207 14.6707 71.6358 14.8938 71.6358 15.1095V15.1095Z" fill="white" stroke="white" stroke-width="0.16" stroke-miterlimit="10"/>
<path d="M78.5981 11.4146H74.4756V14.2171H78.1921V15.2828H74.4756V18.0853H78.5981V19.1713H73.3086V10.3287H78.5981V11.4146Z" fill="white" stroke="white" stroke-width="0.16" stroke-miterlimit="10"/>
<path d="M83.5121 19.1713H82.345V11.4146H79.8164V10.3287H86.0425V11.4146H83.5121V19.1713V19.1713Z" fill="white" stroke="white" stroke-width="0.16" stroke-miterlimit="10"/>
<path d="M90.5483 19.1713V10.3287H91.7135V19.1713H90.5483Z" fill="white" stroke="white" stroke-width="0.16" stroke-miterlimit="10"/>
<path d="M96.8783 19.1713H95.7207V11.4146H93.1826V10.3287H99.4163V11.4146H96.8783V19.1713Z" fill="white" stroke="white" stroke-width="0.16" stroke-miterlimit="10"/>
<path d="M111.204 18.0337C110.31 18.9279 109.204 19.3741 107.884 19.3741C106.556 19.3741 105.45 18.9279 104.556 18.0337C103.665 17.1413 103.221 16.0461 103.221 14.75C103.221 13.4538 103.665 12.3586 104.556 11.4663C105.45 10.572 106.556 10.1259 107.884 10.1259C109.196 10.1259 110.303 10.572 111.196 11.4736C112.095 12.3734 112.539 13.4612 112.539 14.75C112.539 16.0461 112.095 17.1413 111.204 18.0337ZM105.419 17.2925C106.092 17.9544 106.909 18.2863 107.884 18.2863C108.851 18.2863 109.676 17.9544 110.341 17.2925C111.011 16.6306 111.351 15.7806 111.351 14.75C111.351 13.7193 111.011 12.8694 110.341 12.2074C109.676 11.5455 108.851 11.2137 107.884 11.2137C106.909 11.2137 106.092 11.5455 105.419 12.2074C104.749 12.8694 104.409 13.7193 104.409 14.75C104.409 15.7806 104.749 16.6306 105.419 17.2925V17.2925Z" fill="white" stroke="white" stroke-width="0.16" stroke-miterlimit="10"/>
<path d="M114.176 19.1713V10.3287H115.593L119.996 17.2059H120.047L119.996 15.5059V10.3287H121.162V19.1713H119.945L115.334 11.9549H115.283L115.334 13.6622V19.1713H114.176V19.1713Z" fill="white" stroke="white" stroke-width="0.16" stroke-miterlimit="10"/>
<path d="M102.934 32.085C99.3861 32.085 96.4874 34.7215 96.4874 38.3593C96.4874 41.9675 99.3861 44.6317 102.934 44.6317C106.49 44.6317 109.389 41.9675 109.389 38.3593C109.389 34.7215 106.49 32.085 102.934 32.085ZM102.934 42.1611C100.988 42.1611 99.3125 40.592 99.3125 38.3593C99.3125 36.097 100.988 34.5556 102.934 34.5556C104.881 34.5556 106.564 36.097 106.564 38.3593C106.564 40.592 104.881 42.1611 102.934 42.1611V42.1611ZM88.8676 32.085C85.3117 32.085 82.4205 34.7215 82.4205 38.3593C82.4205 41.9675 85.3117 44.6317 88.8676 44.6317C92.4216 44.6317 95.3147 41.9675 95.3147 38.3593C95.3147 34.7215 92.4216 32.085 88.8676 32.085ZM88.8676 42.1611C86.9187 42.1611 85.2381 40.592 85.2381 38.3593C85.2381 36.097 86.9187 34.5556 88.8676 34.5556C90.8146 34.5556 92.4896 36.097 92.4896 38.3593C92.4896 40.592 90.8146 42.1611 88.8676 42.1611ZM72.1286 34.008V36.6741H78.6493C78.4586 38.1638 77.9487 39.259 77.1669 40.0223C76.2152 40.9442 74.7327 41.9675 72.1286 41.9675C68.1157 41.9675 64.9734 38.8054 64.9734 34.8875C64.9734 30.9695 68.1157 27.8075 72.1286 27.8075C74.2984 27.8075 75.8771 28.6353 77.0423 29.7084L78.9666 27.8296C77.3369 26.3103 75.169 25.1433 72.1286 25.1433C66.6257 25.1433 62.001 29.5148 62.001 34.8875C62.001 40.2602 66.6257 44.6317 72.1286 44.6317C75.1029 44.6317 77.3369 43.6803 79.0931 41.8956C80.8928 40.1385 81.4536 37.6678 81.4536 35.6729C81.4536 35.0534 81.4008 34.4837 81.3064 34.008H72.1286ZM140.576 36.0748C140.046 34.6718 138.409 32.085 135.074 32.085C131.769 32.085 129.017 34.6275 129.017 38.3593C129.017 41.8734 131.741 44.6317 135.391 44.6317C138.342 44.6317 140.046 42.8746 140.746 41.8513L138.556 40.4261C137.825 41.4697 136.83 42.1611 135.391 42.1611C133.961 42.1611 132.936 41.5213 132.279 40.2602L140.873 36.7884L140.576 36.0748V36.0748ZM131.814 38.1638C131.741 35.7448 133.738 34.5058 135.17 34.5058C136.292 34.5058 137.243 35.0534 137.561 35.837L131.814 38.1638V38.1638ZM124.829 44.25H127.654V25.8125H124.829V44.25ZM120.202 33.4825H120.108C119.473 32.7487 118.263 32.085 116.729 32.085C113.512 32.085 110.569 34.8432 110.569 38.3795C110.569 41.8956 113.512 44.6317 116.729 44.6317C118.263 44.6317 119.473 43.9624 120.108 43.2065H120.202V44.1062C120.202 46.5049 118.89 47.7937 116.773 47.7937C115.047 47.7937 113.976 46.5768 113.534 45.5536L111.077 46.5547C111.786 48.2178 113.661 50.2643 116.773 50.2643C120.085 50.2643 122.88 48.3616 122.88 43.7319V32.4666H120.202V33.4825V33.4825ZM116.971 42.1611C115.024 42.1611 113.394 40.5699 113.394 38.3795C113.394 36.1689 115.024 34.5556 116.971 34.5556C118.89 34.5556 120.402 36.1689 120.402 38.3795C120.402 40.5699 118.89 42.1611 116.971 42.1611V42.1611ZM153.803 25.8125H147.046V44.25H149.864V37.2641H153.803C156.932 37.2641 160.001 35.0534 160.001 31.5374C160.001 28.0232 156.925 25.8125 153.803 25.8125V25.8125ZM153.877 34.6994H149.864V28.3772H153.877C155.98 28.3772 157.181 30.0827 157.181 31.5374C157.181 32.9644 155.98 34.6994 153.877 34.6994ZM171.294 32.0499C169.258 32.0499 167.141 32.9276 166.27 34.8727L168.771 35.896C169.309 34.8727 170.298 34.5408 171.345 34.5408C172.806 34.5408 174.289 35.3982 174.311 36.9119V37.1055C173.801 36.8179 172.71 36.392 171.367 36.392C168.674 36.392 165.93 37.8393 165.93 40.5404C165.93 43.011 168.136 44.6022 170.616 44.6022C172.512 44.6022 173.558 43.767 174.215 42.7953H174.311V44.2205H177.033V37.1479C177.033 33.8789 174.532 32.0499 171.294 32.0499ZM170.954 42.1537C170.032 42.1537 168.748 41.7075 168.748 40.592C168.748 39.165 170.349 38.6174 171.736 38.6174C172.976 38.6174 173.558 38.8847 174.311 39.2369C174.09 40.9442 172.585 42.1537 170.954 42.1537V42.1537ZM186.947 32.4537L183.708 40.4464H183.612L180.264 32.4537H177.225L182.256 43.6232L179.386 49.8384H182.33L190.082 32.4537H186.947V32.4537ZM161.549 44.25H164.374V25.8125H161.549V44.25Z" fill="white"/>
<path d="M15.7646 11.1196C15.3208 11.5732 15.064 12.2793 15.064 13.1938V45.8135C15.064 46.728 15.3208 47.4341 15.7646 47.8877L15.8741 47.9872L34.5959 29.7157V29.2842L15.8741 11.0127L15.7646 11.1196Z" fill="url(#paint0_linear_329_2084)"/>
<path d="M40.8294 35.8093L34.5957 29.7157V29.2842L40.837 23.1906L40.9767 23.2699L48.368 27.376C50.4774 28.5412 50.4774 30.4587 48.368 31.6313L40.9767 35.73L40.8294 35.8093V35.8093Z" fill="url(#paint1_linear_329_2084)"/>
<path d="M40.977 35.73L34.596 29.5L15.7646 47.8877C16.4653 48.6068 17.6078 48.6934 18.907 47.9744L40.977 35.73" fill="url(#paint2_linear_329_2084)"/>
<path d="M40.977 23.27L18.907 11.0256C17.6078 10.3139 16.4653 10.4006 15.7646 11.1197L34.596 29.5L40.977 23.27Z" fill="url(#paint3_linear_329_2084)"/>
<defs>
<linearGradient id="paint0_linear_329_2084" x1="32.9337" y1="46.1532" x2="8.18673" y2="20.8066" gradientUnits="userSpaceOnUse">
<stop stop-color="#00A0FF"/>
<stop offset="0.0066" stop-color="#00A1FF"/>
<stop offset="0.2601" stop-color="#00BEFF"/>
<stop offset="0.5122" stop-color="#00D2FF"/>
<stop offset="0.7604" stop-color="#00DFFF"/>
<stop offset="1" stop-color="#00E3FF"/>
</linearGradient>
<linearGradient id="paint1_linear_329_2084" x1="51.1147" y1="29.4979" x2="14.5595" y2="29.4979" gradientUnits="userSpaceOnUse">
<stop stop-color="#FFE000"/>
<stop offset="0.4087" stop-color="#FFBD00"/>
<stop offset="0.7754" stop-color="#FFA500"/>
<stop offset="1" stop-color="#FF9C00"/>
</linearGradient>
<linearGradient id="paint2_linear_329_2084" x1="37.5072" y1="26.1132" x2="3.94836" y2="-8.2588" gradientUnits="userSpaceOnUse">
<stop stop-color="#FF3A44"/>
<stop offset="1" stop-color="#C31162"/>
</linearGradient>
<linearGradient id="paint3_linear_329_2084" x1="11.0244" y1="58.7401" x2="26.0099" y2="43.3916" gradientUnits="userSpaceOnUse">
<stop stop-color="#32A071"/>
<stop offset="0.0685" stop-color="#2DA771"/>
<stop offset="0.4762" stop-color="#15CF74"/>
<stop offset="0.8009" stop-color="#06E775"/>
<stop offset="1" stop-color="#00F076"/>
</linearGradient>
</defs>
</svg>
