<svg width="24" height="21" viewBox="0 0 24 21" fill="none" xmlns="http://www.w3.org/2000/svg">
<path d="M1.125 0C1.73438 0 2.25 0.515625 2.25 1.125V17.625C2.25 18.2812 2.71875 18.75 3.375 18.75H22.875C23.4844 18.75 24 19.2656 24 19.875C24 20.5312 23.4844 21 22.875 21H3.375C1.5 21 0 19.5 0 17.625V1.125C0 0.515625 0.46875 0 1.125 0ZM6 4.875C6 4.26562 6.46875 3.75 7.125 3.75H16.875C17.4844 3.75 18 4.26562 18 4.875C18 5.53125 17.4844 6 16.875 6H7.125C6.46875 6 6 5.53125 6 4.875ZM13.875 8.25C14.4844 8.25 15 8.76562 15 9.375C15 10.0312 14.4844 10.5 13.875 10.5H7.125C6.46875 10.5 6 10.0312 6 9.375C6 8.76562 6.46875 8.25 7.125 8.25H13.875ZM19.875 12.75C20.4844 12.75 21 13.2656 21 13.875C21 14.5312 20.4844 15 19.875 15H7.125C6.46875 15 6 14.5312 6 13.875C6 13.2656 6.46875 12.75 7.125 12.75H19.875Z" fill="#DD4975"/>
</svg>
