<svg width="27" height="21" viewBox="0 0 27 21" fill="none" xmlns="http://www.w3.org/2000/svg">
<path d="M6.375 0C7.78125 0 9 1.21875 9 2.625V3.375H18V2.625C18 1.21875 19.1719 0 20.625 0H24.375C25.7812 0 27 1.21875 27 2.625V6.375C27 7.82812 25.7812 9 24.375 9H20.625C19.1719 9 18 7.82812 18 6.375V5.625H9V6.375C9 6.75 8.90625 7.07812 8.76562 7.40625L12.3281 12.1406C12.5625 12.0469 12.8438 12 13.125 12H16.875C18.2812 12 19.5 13.2188 19.5 14.625V18.375C19.5 19.8281 18.2812 21 16.875 21H13.125C11.6719 21 10.5 19.8281 10.5 18.375V14.625C10.5 14.2969 10.5469 13.9688 10.6875 13.6406L7.125 8.90625C6.89062 9 6.60938 9 6.375 9H2.625C1.17188 9 0 7.82812 0 6.375V2.625C0 1.21875 1.17188 0 2.625 0H6.375ZM6.375 2.25H2.625C2.39062 2.25 2.25 2.4375 2.25 2.625V6.375C2.25 6.60938 2.39062 6.75 2.625 6.75H6.375C6.5625 6.75 6.75 6.60938 6.75 6.375V2.625C6.75 2.4375 6.5625 2.25 6.375 2.25ZM16.875 14.25H13.125C12.8906 14.25 12.75 14.4375 12.75 14.625V18.375C12.75 18.6094 12.8906 18.75 13.125 18.75H16.875C17.0625 18.75 17.25 18.6094 17.25 18.375V14.625C17.25 14.4375 17.0625 14.25 16.875 14.25ZM20.25 2.625V6.375C20.25 6.60938 20.3906 6.75 20.625 6.75H24.375C24.5625 6.75 24.75 6.60938 24.75 6.375V2.625C24.75 2.4375 24.5625 2.25 24.375 2.25H20.625C20.3906 2.25 20.25 2.4375 20.25 2.625Z" fill="#DD4975"/>
</svg>
