<svg width="30" height="24" viewBox="0 0 30 24" fill="none" xmlns="http://www.w3.org/2000/svg">
<path d="M5.25 3V15H16.5V18H2.25C0.984375 18 0 17.0156 0 15.75C0 15.375 0.328125 15 0.75 15H3V3C3 1.35938 4.3125 0 6 0H21C22.6406 0 24 1.35938 24 3V4.5H21.75V3C21.75 2.625 21.375 2.25 21 2.25H6C5.57812 2.25 5.25 2.625 5.25 3ZM27 6C28.6406 6 30 7.35938 30 9V21C30 22.6875 28.6406 24 27 24H21C19.3125 24 18 22.6875 18 21V9C18 7.35938 19.3125 6 21 6H27ZM27.75 21V9C27.75 8.625 27.375 8.25 27 8.25H21C20.5781 8.25 20.25 8.625 20.25 9V21C20.25 21.4219 20.5781 21.75 21 21.75H27C27.375 21.75 27.75 21.4219 27.75 21Z" fill="#DD4975"/>
</svg>
