<svg width="25" height="24" viewBox="0 0 25 24" fill="none" xmlns="http://www.w3.org/2000/svg">
<path d="M23.625 22.0781C24.0938 22.5469 24.0938 23.25 23.625 23.6719C23.4375 23.9062 23.1562 24 22.875 24C22.5469 24 22.2656 23.9062 22.0312 23.6719L15.75 17.3906C14.0625 18.75 11.9531 19.5 9.70312 19.5C4.35938 19.5 0 15.1406 0 9.75C0 4.40625 4.3125 0 9.70312 0C15.0469 0 19.4531 4.40625 19.4531 9.75C19.4531 12.0469 18.7031 14.1562 17.3438 15.7969L23.625 22.0781ZM2.25 9.75C2.25 13.9219 5.57812 17.25 9.75 17.25C13.875 17.25 17.25 13.9219 17.25 9.75C17.25 5.625 13.875 2.25 9.75 2.25C5.57812 2.25 2.25 5.625 2.25 9.75Z" fill="#DD4975"/>
</svg>
