<svg width="24" height="24" viewBox="0 0 24 24" fill="none" xmlns="http://www.w3.org/2000/svg">
<path d="M14.8125 7.59375C13.9688 7.07812 13.0312 6.75 12 6.75C9.09375 6.75 6.75 9.14062 6.75 12C6.75 14.9062 9.09375 17.25 12 17.25C14.8594 17.25 17.25 14.9062 17.25 12H19.5C19.5 15.7031 16.8281 18.75 13.3594 19.4062C13.0312 19.0312 12.5156 18.75 12 18.75C11.4375 18.75 10.9219 19.0312 10.5938 19.4062C7.54688 18.8438 5.15625 16.4531 4.59375 13.4062C4.96875 13.0781 5.25 12.5625 5.25 12C5.25 11.4844 4.96875 10.9688 4.59375 10.6406C5.25 7.17188 8.29688 4.5 12 4.5C13.6406 4.5 15.1875 5.0625 16.4062 6L18.0469 4.35938C16.3594 3.04688 14.25 2.25 12 2.25C7.125 2.25 3.09375 5.8125 2.34375 10.4531C1.82812 10.7812 1.5 11.3438 1.5 12C1.5 12.7031 1.82812 13.2656 2.34375 13.5938C3.04688 17.7188 6.28125 20.9531 10.4062 21.6562C10.7344 22.1719 11.2969 22.5 12 22.5C12.6562 22.5 13.2188 22.1719 13.5469 21.6562C18.1875 20.9062 21.75 16.875 21.75 12H24C24 18.6562 18.6094 24 12 24C5.34375 24 0 18.6562 0 12C0 5.39062 5.34375 0 12 0C14.9062 0 17.5312 1.07812 19.6406 2.76562L21.7031 0.75C22.125 0.28125 22.8281 0.28125 23.25 0.75C23.7188 1.17188 23.7188 1.875 23.25 2.29688L14.7188 10.8281C14.9062 11.2031 15 11.625 15 12C15 13.6875 13.6406 15 12 15C10.3125 15 9 13.6875 9 12C9 10.3594 10.3125 9 12 9C12.375 9 12.7969 9.09375 13.125 9.28125L14.8125 7.59375Z" fill="#DD4975"/>
</svg>
