<svg width="30" height="24" viewBox="0 0 30 24" fill="none" xmlns="http://www.w3.org/2000/svg">
<path d="M14.9531 15C12.2812 15 10.0781 12.8438 10.125 10.125C10.125 7.45312 12.2812 5.25 14.9531 5.25C17.625 5.25 19.8281 7.45312 19.8281 10.125C19.8281 12.8438 17.6719 15 14.9531 15ZM14.9531 7.5C13.5469 7.5 12.3281 8.71875 12.3281 10.125C12.3281 11.5781 13.5469 12.75 14.9531 12.75C16.4062 12.75 17.5781 11.5781 17.5781 10.125C17.5781 8.71875 16.4062 7.5 14.9531 7.5ZM24 7.5C21.8906 7.5 20.25 5.85938 20.25 3.75C20.25 1.6875 21.8906 0 24 0C26.0625 0 27.75 1.6875 27.75 3.75C27.75 5.85938 26.0625 7.5 24 7.5ZM17.2969 16.5C21 16.5 24 19.3125 24 22.7812C24 23.4844 23.3906 24 22.6406 24H7.3125C6.5625 24 6 23.4844 6 22.7812C6 19.3125 8.95312 16.5 12.6562 16.5H17.2969ZM8.34375 21.75H21.6094C21.0938 20.0625 19.3594 18.75 17.2969 18.75H12.6094C10.5469 18.75 8.8125 20.0625 8.34375 21.75ZM25.8281 9C28.125 9 30 10.9688 30 13.4062C30 13.875 29.625 14.25 29.1562 14.25H19.7812C20.7656 13.1719 21.3281 11.7188 21.3281 10.125C21.3281 9.89062 21.2812 9.65625 21.2812 9.42188C21.7969 9.1875 22.3594 9 22.9688 9H25.8281ZM8.57812 10.125C8.57812 11.7188 9.1875 13.1719 10.1719 14.25H0.796875C0.328125 14.25 0 13.875 0 13.4062C0 10.9688 1.82812 9 4.125 9H6.98438C7.59375 9 8.15625 9.14062 8.67188 9.42188C8.625 9.65625 8.57812 9.89062 8.57812 10.125ZM6 7.5C3.89062 7.5 2.25 5.85938 2.25 3.75C2.25 1.6875 3.89062 0 6 0C8.0625 0 9.75 1.6875 9.75 3.75C9.75 5.85938 8.0625 7.5 6 7.5Z" fill="#DD4975"/>
</svg>
